<svg version="1" xmlns="http://www.w3.org/2000/svg" width="50" height="50" viewBox="0 0 960.000000 960.000000"><path d="M747.5 56.1c-20.4 3.7-28.8 6.6-42.5 14.6-20.5 12-37.5 28.2-46.6 44.6-14.7 26.1-19.4 42.7-19.4 68.1 0 25 5.3 43.6 19.4 68.6 3.8 6.5 14 19.3 19.4 24 2.6 2.3 5.8 5.1 7.2 6.4 9 8.2 21.4 15.4 36.5 21.1 18.1 6.8 24.8 8 46.5 8 13.8 0 20.5-.4 26.5-1.7 10.7-2.3 30.3-9.9 39-15 8.3-4.9 18.5-12.5 18.5-13.9 0-.5.4-.9 1-.9 2.9 0 19.2-18.5 24.6-28 14.1-25 19.4-43.6 19.4-68.6 0-25.4-4.7-42-19.4-68.1-8.9-16-25.6-32.1-45.9-44.2-13.7-8.2-21.7-11-42.2-14.7-8.9-1.6-33.9-1.7-42-.3zM229.6 185.2c-.9 1.2-1.6 3-1.6 3.8 0 .9-.4 2-.8 2.5-.5.6-1.7 3-2.6 5.5-1 2.5-4 8.2-6.7 12.6-2.7 4.5-4.9 8.7-4.9 9.4 0 .7-2 5-4.5 9.7-2.5 4.6-4.5 9.1-4.5 9.8 0 1.6-3.1 8.7-4.2 9.5-.8.7-12.8 24.6-12.8 25.6 0 1.4-4.3 9.9-5.4 10.6-.7.5-.7.8-.1.8.7 0 .7.3 0 .8-.9.6-4.5 10-4.5 11.6 0 .3 26.9.6 59.8.6 103.6 0 138.9 3.1 160.7 14 4.4 2.2 8.5 4 9.1 4 .5 0 1.9.8 3 1.8 1 1 4.4 3.2 7.4 4.9 8.7 5 31 27.9 31 31.8 0 .4 1.1 2 2.3 3.5 1.3 1.5 3.8 7 5.6 12.1 1.8 5.2 3.7 10.3 4.2 11.4 1.4 3.2 2.9 15.3 2.9 24.3 0 8.8-1.7 22-3 23.7-.5.5-1.1 2.8-1.5 5-.8 4.3-5.2 16.2-6.8 18.2-.5.7-2.3 4.1-3.9 7.5-6.3 13.1-18.5 28.7-30.1 38.5-2.1 1.8-6.8 4.7-10.5 6.5-3.7 1.8-7.3 3.8-7.9 4.5-1.8 1.6-11.5 5.2-16.6 5.9-2.3.4-4.7 1.1-5.3 1.5-2.3 1.8-28.3 6.4-42.9 7.5-4.9.4-9.6 1.2-10.4 1.8-1 .8-38.2 1.2-134.3 1.4l-132.8.3V642h193.8l.6 2.2c.3 1.3.6 3.5.6 5 0 1.6.4 2.8.9 2.8.4 0 2.8 6.9 5.1 15.2 2.4 8.4 4.9 16.2 5.5 17.3.7 1.1 2.7 7.3 4.5 13.8 1.8 6.4 3.6 11.7 4.1 11.7.7 0 2.1 4.9 3.8 13.5 1.3 6.2 3.5 13.9 4.2 14.5.7.6 8.9 27.9 8.9 29.7 0 .6.4 1.3.8 1.5.8.3 6.7 18.1 7.8 23.5.4 1.8 1 3.3 1.5 3.3s.9.9.9 2c0 2.5 5.8 24.1 6.9 25.5.4.5 1.1 1.9 1.4 3 2.8 10.2 7.8 25.6 9 28 .9 1.6 2.8 7.9 4.3 14 1.5 6 3.3 12.4 4 14.2.8 1.7 1.4 3.4 1.4 3.9 0 1.4 6.2 20.9 7.6 23.9.7 1.6 2.7 7.9 4.5 14 1.7 6 3.7 12.3 4.4 14 1.9 4.3 4.3 12.3 5 17.2l.7 4.3h91.9c56.8 0 91.9-.4 91.9-.9 0-.6-.4-1.2-.9-1.5-.5-.3-2.5-5.7-4.5-11.8-2.1-6.2-4.5-13.1-5.5-15.3-2.6-5.6-6.1-17.2-6.1-20.1 0-1.3-.5-2.4-1-2.4-.6 0-.9-.3-.8-.8.1-.4-.4-1.9-1-3.4s-2.5-7.2-4.2-12.7c-1.7-5.5-3.9-11.7-5-13.8-1-2.1-3-7.7-4.4-12.4-1.4-4.7-3.5-10.5-4.7-12.8-1.1-2.4-2.4-6.6-2.9-9.5-.5-2.9-1.6-7.1-2.6-9.2-1-2.1-1.8-4.4-1.8-4.9-.1-.6-.4-1.2-.8-1.5-.3-.3-2.2-5.9-4.2-12.5-2-6.5-4-12.2-4.5-12.5-.4-.3-2.5-5.9-4.6-12.5-2.1-6.6-4.2-12.2-4.6-12.3-.5-.2-.9-1.5-.9-2.8 0-2.6-6-21.7-8.5-26.9-.8-1.7-2.8-7.5-4.6-13-1.7-5.5-3.5-10.5-3.9-11-1.3-1.6-7-19.8-7-22.2 0-1.2-.4-2.3-.8-2.5-.4-.2-2.7-6.4-5.1-13.8-2.4-7.4-4.7-14-5.2-14.5-.4-.6-1.4-3.3-2.3-6-2.6-8.3-5.5-16.9-6.6-19-1.7-3.6-3.1-7.9-4-12.5-.5-2.5-1.1-5.2-1.5-6.1-.5-1.2 1.2-1.8 8.7-3.3 12.8-2.4 27.2-5.8 27.8-6.5.5-.6 9.2-3.1 23.3-6.6 3.7-1 6.7-2 6.7-2.4 0-.7 3-2.1 12.5-5.6 3.8-1.5 7.2-3 7.5-3.3.3-.4 4.7-2.7 9.8-5.2 5-2.4 9.2-4.8 9.2-5.2 0-.4.7-.8 1.6-.8 2 0 12.6-5.9 13.6-7.6.4-.6 3.1-2.7 6-4.5 2.9-1.9 5.8-3.8 6.3-4.5.6-.6 3-2.6 5.5-4.4 7.8-5.9 24-21.5 24-23.1 0-.3.7-1.2 1.6-2 2.4-2 12.5-14.7 17.2-21.7 2.4-3.4 4.6-6.2 5-6.2.4 0 1.5-1.5 2.3-3.3 1.8-3.7 8.5-16.5 9.8-18.7 3.7-6.2 9.8-20.7 12.3-29 .6-1.9 1.4-3.7 1.8-4 1.2-.8 4.7-18.3 6.2-30.5 1.7-14.2 1.7-47 0-60.5-1.4-10.8-5-28.1-6.1-29-.4-.3-1.7-3.6-3-7.4-1.4-3.8-3.5-9-4.9-11.5-1.3-2.5-4.2-8-6.4-12.1-5.4-10.2-8.7-15.5-12.4-19.9-1.7-2-3.5-4.3-4-5.2-1.5-2.8-14.4-17-22.4-24.7-19.2-18.6-28.4-26.1-42-33.8-3.6-2.1-6.7-4.1-7-4.5-.3-.4-3.7-2.2-7.5-4-3.9-1.8-8.2-4-9.6-5-3.1-2.2-14.8-6.4-20.1-7.3-2-.4-3.8-1.1-4-1.5-.3-1-28.4-7.4-37.3-8.7-2.7-.3-5.4-1-6-1.4-1.2-1-30.1-4.5-48.5-6-27.8-2.1-59-3-111.2-3h-53.7l-1.5 2.2z" fill="#fff"/></svg>